<svg xmlns="http://www.w3.org/2000/svg" viewBox="0 -60 800 600" width="1600" height="1200">
  <defs>
    <linearGradient id="bg" x1="0" y1="0" x2="0" y2="1">
      <stop offset="0" stop-color="#0a0a0c"/><stop offset="1" stop-color="#2b2c31"/>
    </linearGradient>
    <linearGradient id="shine" x1="0" y1="0" x2="0" y2="1">
      <stop offset="0" stop-color="#fff" stop-opacity=".45"/><stop offset=".5" stop-color="#fff" stop-opacity="0"/>
    </linearGradient>
  </defs>
  <rect y="-60" width="800" height="600" fill="url(#bg)"/>
  <circle cx="640" cy="110" r="140" fill="#e1101d" opacity=".12"/>
  <rect y="410" width="800" height="130" fill="#000" opacity=".12"/>
  
    <rect x="0" y="300" width="800" height="240" fill="#151b27"/>
    <path d="M0 300 Q400 210 800 300 L800 360 L0 360 Z" fill="#232b3a"/>
    <rect x="300" y="250" width="200" height="90" rx="10" fill="#0b0f18"/>
    <rect x="312" y="262" width="176" height="66" rx="6" fill="#2b2c31"/>
    <rect x="322" y="272" width="60" height="8" rx="4" fill="#e1101d"/>
    <rect x="322" y="290" width="120" height="6" rx="3" fill="#9aafd0"/>
    <rect x="322" y="304" width="90" height="6" rx="3" fill="#9aafd0"/>
    <g transform="translate(180 360)">
      <circle r="110" fill="none" stroke="#0b0f18" stroke-width="26"/>
      <circle r="34" fill="#0b0f18"/>
      <path d="M-100 10 L-34 4 M100 10 L34 4 M0 34 L0 100" stroke="#0b0f18" stroke-width="22"/>
    </g>
    <path d="M560 500 Q570 380 640 360 L780 360 L800 500 Z" fill="#b8b9bb"/>
  <rect x="532" y="-42" width="250" height="28" rx="14" fill="#000" opacity=".35"/>
  <text x="548" y="-23" font-family="Arial, sans-serif" font-size="13" font-weight="700" fill="#ffffff">IMAGEM ILUSTRATIVA · DEMO</text>
  <text x="24" y="514" font-family="Arial, sans-serif" font-size="22" font-weight="800" fill="#ffffff" opacity=".85">Renault Kangoo</text>
</svg>